<?xml version="1.0" encoding="utf-8"?>
<!-- Generator: Adobe Illustrator 22.0.1, SVG Export Plug-In . SVG Version: 6.00 Build 0)  -->
<svg version="1.1" id="Ebene_1" xmlns="http://www.w3.org/2000/svg" xmlns:xlink="http://www.w3.org/1999/xlink" x="0px" y="0px"
	 viewBox="0 0 209.7 61.6" style="enable-background:new 0 0 209.7 61.6;" xml:space="preserve">
<rect x="4.3" y="4.3" width="37.9" height="3.4"/>
<rect x="4.3" y="18.1" width="37.9" height="3.4"/>
<rect x="4.3" y="31.9" width="37.9" height="3.4"/>
<rect x="4.3" y="45.7" width="37.9" height="3.4"/>
<rect x="18.1" y="11.2" width="37.9" height="3.4"/>
<rect x="18.1" y="25" width="37.9" height="3.4"/>
<rect x="18.1" y="38.8" width="37.9" height="3.4"/>
<rect x="18.1" y="52.6" width="37.9" height="3.4"/>
<g>
	<path d="M130.3,4.3h-3.6l-2.2,9.4c-0.1,0.6-0.3,1.3-0.5,2.2c-0.2,0.9-0.3,1.7-0.4,2.3c-0.1-0.6-0.2-1.4-0.4-2.3
		c-0.2-0.9-0.3-1.5-0.4-2l-2.5-9.6h-3.5l-2.5,9.6c-0.1,0.5-0.3,1.2-0.5,2.2c-0.2,0.9-0.3,1.6-0.3,2.1c-0.2-1.3-0.5-2.8-0.8-4.5
		l-2.2-9.4h-3.6l4.4,17.2h4.1l2.3-9c0.1-0.4,0.2-1.1,0.4-2c0.2-0.9,0.3-1.6,0.4-2c0,0.3,0.2,1,0.4,2c0.2,1,0.4,1.7,0.4,2l2.3,9h4.2
		L130.3,4.3z M94.7,14.4c1.2-4,2-6.5,2.2-7.5c0.1,0.3,0.2,0.7,0.3,1.2c0.1,0.5,0.8,2.6,1.9,6.3H94.7z M105.3,21.5L99.2,4.2h-4.5
		l-6.1,17.3h3.9l1.2-4.1h6.3l1.2,4.1H105.3z M83.9,4.3h-3.6v6.8h-6.8V4.3h-3.7v17.2h3.7v-7.4h6.8v7.4h3.6V4.3z"/>
	<path d="M197.8,42.5h3.3v3.6c-0.8,0.2-1.6,0.2-2.3,0.2c-1.5,0-2.6-0.5-3.3-1.5c-0.8-1-1.1-2.4-1.1-4.3c0-1.8,0.5-3.2,1.4-4.3
		s2.2-1.6,3.8-1.6c1.4,0,2.7,0.3,3.9,0.9l1.2-2.9c-1.6-0.7-3.3-1.1-5.1-1.1c-2.8,0-5,0.8-6.6,2.3c-1.6,1.6-2.4,3.7-2.4,6.5
		c0,2.9,0.7,5.1,2.1,6.6c1.4,1.5,3.4,2.3,6,2.3c1,0,2-0.1,3-0.2c1-0.1,2-0.4,3.1-0.8v-8.9H198v3.2H197.8z M179.1,42.5l4.1,6.6h4.1
		c-0.8-1.1-2.5-3.6-5.1-7.5c1-0.4,1.8-1.1,2.4-1.9c0.6-0.8,0.8-1.7,0.8-2.7c0-1.7-0.6-3-1.7-3.9c-1.1-0.9-2.9-1.3-5.2-1.3h-5V49h3.7
		v-6.6h1.9V42.5z M177.1,34.9h1.1c1.2,0,2,0.2,2.6,0.5s0.8,0.9,0.8,1.7s-0.3,1.4-0.8,1.8c-0.5,0.4-1.4,0.6-2.6,0.6H177L177.1,34.9
		L177.1,34.9z M163.5,31.9v10.5c0,1.3-0.3,2.3-0.8,2.9c-0.5,0.6-1.4,0.9-2.6,0.9c-1.2,0-2.1-0.3-2.7-0.9c-0.5-0.6-0.8-1.6-0.8-2.9
		V31.9H153V43c0,2,0.6,3.5,1.8,4.7c1.2,1.1,2.9,1.7,5.2,1.7c1.5,0,2.7-0.3,3.8-0.8s1.9-1.2,2.5-2.2s0.9-2.1,0.9-3.3V31.9H163.5z
		 M140.7,41.6c2,0,3.1,0.7,3.1,2.1c0,0.8-0.2,1.4-0.7,1.8c-0.5,0.4-1.2,0.6-2.2,0.6h-2.4v-4.5C138.5,41.6,140.7,41.6,140.7,41.6z
		 M138.4,34.9h1.9c1,0,1.8,0.1,2.3,0.4c0.5,0.3,0.7,0.8,0.7,1.4c0,0.7-0.2,1.2-0.7,1.5c-0.4,0.3-1.2,0.5-2.1,0.5h-2.1L138.4,34.9
		L138.4,34.9z M134.8,49.1h6.4c1.9,0,3.5-0.4,4.6-1.3c1.1-0.9,1.7-2.1,1.7-3.7c0-1.1-0.2-2-0.7-2.7s-1.3-1.1-2.4-1.4v0
		c0.8-0.1,1.4-0.5,1.9-1.2s0.7-1.5,0.7-2.5c0-1.5-0.6-2.6-1.7-3.3c-1.1-0.7-2.9-1-5.3-1h-5.4v17.1H134.8z M120.6,49.1l4.4-13.5h0.1
		c-0.1,2.2-0.1,3.5-0.2,4c0,0.5,0,0.9,0,1.3v8.2h3.4V31.9h-5L119,45.1l0,0l-4.1-13.2h-5v17.2h3.3v-8c0-0.9-0.1-2.8-0.2-5.5h0.1
		l4.1,13.5H120.6z M94.7,42c1.2-4,2-6.5,2.2-7.5c0.1,0.3,0.2,0.7,0.3,1.2c0.1,0.5,0.8,2.6,1.9,6.3H94.7z M105.3,49.1l-6.1-17.3h-4.5
		l-6.1,17.3h3.9l1.2-4.1h6.3l1.2,4.1H105.3z M83.9,31.9h-3.6v6.8h-6.8v-6.8h-3.7v17.2h3.7v-7.4h6.8v7.4h3.6V31.9z"/>
</g>
</svg>
