<svg id="Layer_1" data-name="Layer 1" xmlns="http://www.w3.org/2000/svg" viewBox="0 0 504.164 578.071"><title>the_1</title><path d="M261.507,127.458V96.794h33.984V28.63h35.938V96.794h46.484v30.664H331.429V269.841h46.484V300.7H295.491V127.458Z" transform="translate(-261.507 -28.63)"/><path d="M396.5,300.7V28.63h33.984V130.779h33.985v33.984H430.483V300.7Zm67.969-169.922V96.794h67.969v33.985h33.984V300.7H532.437V130.779Z" transform="translate(-261.507 -28.63)"/><path d="M590.866,198.748a153.639,153.639,0,0,1,5.768-43.067q5.768-19.821,17.206-33.789a82.665,82.665,0,0,1,27.667-21.973q16.229-8.005,37.347-8.007,21.945,0,38.26,7.617a74.977,74.977,0,0,1,27,20.8,90.739,90.739,0,0,1,16.122,30.957,130.206,130.206,0,0,1,5.439,38.281v19.14H628.952v21.68a44.441,44.441,0,0,0,4.19,19.727,43.158,43.158,0,0,0,11.4,14.551,50.508,50.508,0,0,0,16.177,8.984,57.468,57.468,0,0,0,18.521,3.027q19.1,0,33.136-9.765t15.985-31.055h35.742a66.922,66.922,0,0,1-8.526,29.2,73.145,73.145,0,0,1-19.132,21.777A89.58,89.58,0,0,1,709.934,300.7a98.428,98.428,0,0,1-31.08,4.883q-22.1,0-38.617-8.008a77.522,77.522,0,0,1-27.569-22.071q-11.05-14.062-16.425-33.593A162.37,162.37,0,0,1,590.866,198.748ZM628.952,180h99.8V168.669a48.986,48.986,0,0,0-4-20.117,44.768,44.768,0,0,0-10.916-15.234,47.162,47.162,0,0,0-15.983-9.473,56.312,56.312,0,0,0-19.006-3.222,55.472,55.472,0,0,0-18.908,3.222,48.432,48.432,0,0,0-15.985,9.473,44.159,44.159,0,0,0-11.014,15.234,48.986,48.986,0,0,0-4,20.117Z" transform="translate(-261.507 -28.63)"/><path d="M275.429,436.779V402.8h33.984V334.63H343.4V402.8h33.985v33.984H343.4V572.717h33.985V606.7H309.413V436.779Z" transform="translate(-261.507 -28.63)"/><path d="M396.569,606.7V334.63h35.938V436.389q8.4-17.968,23.047-28.223t37.89-10.254a85.081,85.081,0,0,1,26.874,4,52.168,52.168,0,0,1,20.834,12.793q8.763,8.788,13.633,22.559t4.87,33.5V606.7H523.718V474.67q0-22.459-8.594-35.254t-31.836-12.793a46.42,46.42,0,0,0-20.312,4.395,47.233,47.233,0,0,0-16.016,12.6,60.171,60.171,0,0,0-10.645,19.434,75.9,75.9,0,0,0-3.808,24.512V606.7Z" transform="translate(-261.507 -28.63)"/><path d="M585.28,572.717V436.779h33.985v33.985H721.218V436.779H619.265V402.8H721.218v33.984H755.2v67.969H619.265v67.969H721.218V606.7H619.265V572.717Zm135.938,0V538.732H755.2v33.985Z" transform="translate(-261.507 -28.63)"/></svg>